<svg width="869" height="414" viewBox="0 0 869 414" fill="none" xmlns="http://www.w3.org/2000/svg">
<path d="M654.246 238.527C658.018 240.503 662.062 240.72 666.262 240.689C680.057 240.589 693.852 240.68 707.647 240.73C711.809 240.704 715.958 241.172 720.004 242.124C720.004 242.67 720 243.217 719.992 243.765C713.615 242.88 707.183 242.428 700.742 242.415C665.671 242.445 630.6 242.452 595.529 242.436C500.746 242.436 405.961 242.432 311.176 242.424C307.928 242.424 305.095 241.82 305.121 246.94C305.336 287.991 305.351 329.041 305.168 370.091C305.158 373.451 306.029 374.48 309.577 374.467C349.955 374.348 390.333 374.343 430.71 374.453C434.525 374.462 435.592 373.081 435.53 369.549C435.354 359.382 435.311 349.206 435.509 339.042C436.042 311.502 458.64 288.09 486.244 286.302C516.412 284.341 541.97 303.897 546.17 332.274C547.912 344.043 546.92 355.91 546.821 367.72C546.776 373.01 548.235 374.521 553.736 374.51C627.857 374.332 701.978 374.31 776.1 374.444C781.646 374.444 786.601 373.459 790.871 369.917L791.917 370.921C788.571 374.954 784.03 376.339 778.942 376.39C769.912 376.481 760.883 376.513 751.853 376.568C749.407 376.499 746.959 376.383 744.512 376.378C742.76 376.378 741.233 375.957 740.199 378.503C734.606 392.756 723.472 404.277 709.217 410.562L707.126 411.157C707.417 411.36 707.697 411.728 707.995 411.741C709.506 411.814 711.023 411.808 712.536 411.81L842.102 411.926C842.047 413.153 841.671 414.049 840.141 413.998C838.612 413.947 837.11 413.998 835.593 413.998C582.037 413.998 328.481 413.936 74.9257 413.812C60.9915 413.797 47.0156 413.209 33.0535 413.068C32.1581 413.059 31.1343 413.31 30.4755 411.944C34.8413 410.318 39.4453 411.953 44.1622 410.874C42.8968 408.467 40.9458 406.468 38.5437 405.116L39.682 402.886C39.4809 393.355 43.7972 389.457 54.4311 389.552L56.4834 389.614C58.9037 392.766 62.5272 395.088 62.8675 399.635C63.1969 404.048 61.3348 407.54 57.6201 411.015H70.1222C75.0262 411.104 79.9287 411.252 84.8343 411.268C96.5213 411.306 96.5214 411.28 96.243 399.525C96.2605 398.105 96.2786 396.687 96.2971 395.269C96.4126 394.457 96.5275 393.644 96.642 392.83L98.4437 392.967C98.4282 393.887 98.4591 394.808 98.3911 395.724C97.74 404.587 98.272 405.221 107.291 405.171C109.553 405.188 111.805 404.874 113.971 404.238C116.445 403.46 119.676 403.291 120.107 399.725C123.494 399.058 124.911 403.663 128.415 402.681L138.426 404.164C140.146 405.245 142.663 405.943 143.44 407.484C145.961 412.463 150.06 411.149 154.111 410.77C149.247 409.154 145.405 405.806 140.86 403.718C139.306 401.7 137.406 399.959 135.243 398.572C130.129 392.502 125.066 386.4 122.67 378.693C122.37 377.1 121.042 377.403 119.942 377.281C120.072 375.63 120.121 373.969 120.352 372.331C120.612 370.492 120.042 369.674 118.006 369.575C112.878 369.34 107.914 367.741 103.651 364.95C101.367 363.471 100.179 364.125 100.129 366.827C100.105 368.114 99.9206 369.392 99.8108 370.682L98.1437 370.646C98.1432 369.827 97.974 369.017 97.6461 368.263C97.3183 367.509 96.8385 366.827 96.2352 366.258C92.5743 362.297 90.5752 357.137 90.6353 351.803C90.5007 337.138 90.6554 322.473 90.694 307.807C91.3606 305.42 89.7522 305.213 88.0047 305.141C89.8497 298.13 89.1042 296.317 82.9537 292.855C82.9738 292.276 82.9908 291.698 83.0078 291.119C84.9193 291.368 85.1158 290.192 85.1049 288.777C85.2608 285.861 85.2376 282.939 85.0353 280.025C84.3811 275.022 86.1936 271.647 90.9724 269.765L92.5854 269.809C92.188 273.822 91.7488 277.836 92.9566 281.88C96.1749 272.611 101.894 264.259 102.502 254.236H104.191C103.475 262.718 102.76 271.199 102.044 279.678C100.442 279.689 98.7112 279.527 98.8489 281.91C97.0951 289.002 92.1896 295.154 92.1648 302.754C92.1174 318.02 92.1174 333.287 92.1648 348.556C92.1648 351.002 91.7534 353.6 93.9309 355.966C94.1413 354.035 94.3176 352.407 94.4954 350.779L96.1626 350.806C95.9213 352.606 95.7296 354.415 95.4311 356.206C94.6887 360.656 95.7264 362.863 101.198 362.376C107.796 361.854 114.427 361.849 121.026 362.361C125.593 362.675 126.623 360.808 127.232 356.9C130.573 335.583 134.176 314.321 137.687 293.046L139.433 293.059C139.645 294.481 138.162 296.136 140.051 297.326C139.976 296.988 139.897 296.649 139.818 296.312L139.286 296.566L140.068 297.308C142.101 293.592 147.637 293.916 149.256 289.728C149.84 289.728 150.423 289.724 151.007 289.717L158.286 315.89L157.102 317.364C154.473 309.844 154.318 309.808 148.116 315.356C129.39 332.105 129.292 366.394 147.922 383.197C157.819 392.127 170.768 394.091 181.985 388.25C183.653 387.381 186.206 386.924 185.496 384.043L187.318 384.063C189.328 389.213 191.328 394.372 193.379 399.507C193.959 400.958 194.078 402.935 196.543 402.636C202.884 401.872 208.705 400.021 213.05 395.116C213.756 394.322 214.772 393.426 213.637 392.297C208.449 387.147 208.187 379.945 205.412 373.792C204.848 372.541 204.982 369.73 202.395 370.906C196.008 373.813 189.511 372.051 183.04 371.832L183.073 369.795C189.757 367.793 196.405 365.676 203.137 363.847C206.263 362.999 207.169 362.057 206.21 358.54C199.899 335.377 193.966 312.119 188.991 288.641L190.927 288.6C217.252 299.239 229.898 318.447 228.864 346.225C228.598 353.425 228.994 360.65 228.762 367.852C228.607 372.529 230.249 374.504 235.305 374.459C256.531 374.281 277.76 374.319 298.988 374.459C302.364 374.48 303.517 373.741 303.507 370.199C303.375 328.974 303.367 287.747 303.485 246.519C303.485 243.436 302.698 242.362 299.388 242.37C261.482 242.47 223.575 242.47 185.668 242.37C181.893 242.358 181.801 243.752 182.42 246.688C183.795 253.193 184.853 259.76 186.039 266.304L184.314 266.361C182.787 257.868 181.262 249.374 179.738 240.879L182.152 240.707C193.7 240.684 205.247 240.661 216.795 240.637C244.239 240.563 271.683 240.485 299.125 240.402L309.289 240.417C318.723 240.491 328.157 240.637 337.598 240.624C367.623 240.586 397.649 240.515 427.674 240.413L463.971 240.823C470.456 241.33 476.972 241.33 483.457 240.823C490.087 240.764 496.719 240.665 503.35 240.656C552.831 240.586 602.31 240.528 651.787 240.481C652.406 240.521 653.318 240.944 652.934 239.655L654.244 238.525M472.474 410.387C455.853 403.172 445.575 390.379 439.095 372.722C432.555 390.39 422.312 403.245 405.608 410.41C404.844 410.65 403.803 410.269 403.274 411.452H475.236C475.236 411.259 475.247 411.068 475.253 410.874L472.469 410.386M523.862 410.369C523.13 410.544 521.814 410.63 521.766 410.912C521.512 412.448 522.91 411.879 523.582 411.876C541.573 411.802 559.564 411.695 577.555 411.556H659.611C654.841 409.206 650.386 406.561 645.887 403.989L640.652 399.43C636.981 395.251 632.37 391.294 630.818 386.139C627.74 375.924 620.59 375.245 611.899 376.582L591.496 376.513H572.15C567.998 376.457 563.832 376.576 559.696 376.288C556.734 376.083 555.366 377.272 554.245 379.828C548.581 393.478 537.683 404.434 523.868 410.366M522.341 349.475C522.309 337.404 518.849 326.49 510.387 317.462C497.588 303.807 478.31 303.789 465.296 317.262C449.149 333.973 449.058 364.426 465.109 381.267C478.372 395.185 498.118 394.962 510.964 380.635C518.931 371.748 522.253 361.17 522.341 349.476M356.41 411.341C340.448 405.183 330.042 393.838 323.494 378.863C323.214 378.007 322.63 377.275 321.848 376.8C321.066 376.325 320.135 376.137 319.224 376.27C292.707 376.325 266.191 376.325 239.674 376.27C238.852 376.131 238.005 376.274 237.279 376.674C236.552 377.073 235.988 377.706 235.684 378.464C233.862 382.455 231.785 386.332 229.614 390.651C231.698 390.651 233.387 390.539 235.057 390.677C237.795 390.903 240.78 391.633 241.435 394.412C242.113 397.258 238.76 397.522 236.961 398.53C229.9 402.49 222.733 406.272 215.608 410.123C262.72 411.655 309.482 412.122 356.412 411.33" fill="#050605"/>
<path d="M777.04 275.217C785.629 285.159 791.709 296.927 794.794 309.577L793.059 309.63C792.595 308.224 792.157 306.811 791.667 305.405C791.471 304.628 791.084 303.909 790.539 303.309C789.995 302.71 789.31 302.249 788.543 301.965C787.776 301.681 786.949 301.583 786.135 301.68C785.32 301.776 784.542 302.064 783.866 302.518C783.17 303.007 782.589 303.635 782.162 304.36C781.735 305.086 781.473 305.892 781.392 306.725C780.115 313.481 775.927 314.932 769.25 314.832C743.293 314.445 717.32 314.313 691.372 314.876C682.711 315.065 675.846 313.336 670.529 306.641C667.214 302.466 662.863 301.566 657.554 301.618C631.214 301.861 604.873 301.713 578.527 301.75C575.622 301.75 573.071 301.725 571.103 298.942C565.514 291.036 559.659 283.306 553.921 275.505C552.806 273.988 551.583 272.471 552.791 270.477C553.983 268.516 555.941 268.798 557.842 268.926C592.428 271.251 626.992 273.99 661.614 275.786C699.238 277.747 736.903 280.593 774.576 276.333L777.034 275.208" fill="#050605"/>
<path d="M751.853 376.562C760.884 376.508 769.912 376.478 778.942 376.387C784.032 376.335 788.573 374.949 791.918 370.916L792.451 370.815H792.994C793.016 374.501 789.915 377.579 790.81 381.83C795.213 380.066 798.362 376.918 801.566 373.993C815.215 361.281 832.537 352.967 851.188 350.175C855.083 349.336 859.132 349.466 862.962 350.555C868.584 352.473 870.395 356.721 867.911 361.938C865.614 366.758 861.32 369.454 856.751 371.767C845.421 377.501 833.072 380.445 820.972 384.065C813.683 386.04 806.566 388.577 799.689 391.653C796.337 392.949 793.362 395.03 791.028 397.712C795.476 400.294 800.043 399.586 804.568 399.012C814.993 397.685 825.137 393.943 835.963 396.051C842.18 397.258 848.08 399.001 853.129 402.806C855.458 404.56 857.319 406.905 856.395 409.945C855.389 413.249 852.266 411.644 850.055 411.848C847.426 412.091 844.766 411.914 842.118 411.917C798.929 411.881 755.74 411.843 712.552 411.802C711.038 411.802 709.522 411.802 708.011 411.734C707.711 411.719 707.433 411.351 707.142 411.149L709.233 410.555C719.625 408.951 729.082 405.388 736.835 398.182C739.255 395.93 741.216 393.073 744.76 392.238L764.666 398.52C759.847 392.729 754.164 389.5 748.499 386.245C748.726 382.722 752.121 380.249 751.869 376.567" fill="#A4A4A4"/>
<path d="M104.188 254.222H102.499C101.945 252.303 101.144 253.086 100.304 254.021C96.4606 258.595 93.8114 264.009 92.5841 269.801L90.9711 269.756C91.6427 262.904 94.7516 256.498 99.7584 251.649C101.772 249.728 102.989 247.149 103.176 244.407C104.673 225.256 106.424 206.123 105.975 186.884C106.013 184.868 105.665 182.864 104.95 180.973C101.511 172.593 98.3665 164.096 95.0198 155.68C94.4012 154.106 94.3471 151.82 91.6175 151.966C86.8527 152.223 85.934 149.009 85.0339 145.386C81.1027 129.572 79.3721 113.718 84.0457 97.7854C87.1032 87.3741 92.8501 78.5984 102.191 72.4361C108.866 68.0377 116.869 67.7902 124.439 66.4881C129.322 65.6506 132.433 64.0271 132.279 58.7626L133.95 58.835C133.878 63.2027 133.191 67.54 131.909 71.7254C130.789 67.3119 128.652 67.4477 126.286 68.0015C124.082 68.5175 121.855 68.9732 119.617 69.3112C116.776 69.7412 116.286 70.7959 117.774 73.3203C121.665 79.9111 125.842 86.2756 131.716 91.365C137.639 96.4953 144.289 100.065 152.346 96.6899C157.851 94.3858 160.432 85.5618 158.879 76.8571C158.588 75.2365 158.525 73.2056 156.559 72.765C150.101 71.3331 148.981 66.5861 148.644 61.2447L150.809 61.0289C150.851 66.3688 153.158 69.9072 158.749 71.2968C170.748 74.2784 176.395 83.0873 179.811 93.7597C181.911 99.6743 182.961 105.895 182.917 112.154L181.26 112.17C181.055 110.713 180.846 109.26 180.642 107.806C179.344 98.3904 177.193 89.2466 171.075 81.5346C168.579 78.3901 165.888 75.2698 161.404 75.0766C161.404 78.0536 161.503 80.8104 161.387 83.5671C160.778 97.9408 149.431 104.264 136.547 97.3206C133.928 95.8411 131.494 94.0687 129.295 92.0395C123.832 87.1525 119.409 81.264 116.277 74.71C114.3 70.6088 112.039 70.3342 108.322 71.8551C97.7804 76.169 91.6438 84.4257 87.7017 94.3044C80.7083 111.835 83.1302 129.507 87.7357 147.115C87.8462 147.843 88.2219 148.507 88.7937 148.986C89.3656 149.465 90.0952 149.726 90.8489 149.723C98.8661 150.248 106.715 149.991 114.138 146.373C117.293 144.835 118.314 143.07 117.652 139.432C115.613 129.276 114.618 118.947 114.682 108.598C114.724 106.768 114.075 104.633 116.042 103.107C116.478 103.569 116.888 103.803 116.889 104.037C116.877 116.779 117.977 129.5 120.177 142.061C120.332 142.913 120.409 144.337 119.934 144.65C116.003 147.253 118.314 150.534 118.733 153.59C119.061 155.985 119.815 157.192 122.721 155.746C137.124 148.594 153.171 144.633 166.001 134.433L167.133 135.453C167.123 135.853 167.113 136.253 167.105 136.66L167.213 136.53C150.945 147.93 131.779 153.192 113.309 162.225C113.355 161.417 113.64 160.64 114.131 159.988C114.623 159.336 115.298 158.838 116.074 158.554C117.85 157.524 116.94 155.951 116.755 154.58C116.6 153.406 115.929 152.316 114.573 152.597C108.592 153.853 102.636 152.73 95.8596 151.994C99.1692 160.495 102.135 168.226 105.19 175.929C108.42 184.086 112.636 185.811 120.5 181.909C137.5 173.459 154.474 164.967 171.327 156.25C173.574 155.088 178.681 155.034 176.098 149.937C176.825 149.44 177.579 148.983 178.357 148.565C180.315 151.239 183.721 147.467 185.683 150.129C176.296 153.489 176.441 162.157 176.416 169.141C176.375 180.321 178.492 191.514 178.79 203.217C181.474 202.959 183.019 201.281 184.78 200.15C197.885 191.736 210.27 182.124 225.345 176.993C231.589 174.868 237.824 172.701 244.495 172.196C244.495 172.742 244.505 173.288 244.511 173.833C233.961 175.975 223.745 179.457 214.122 184.19C203.574 189.682 194.27 197.044 184.097 203.071C179.748 205.648 177.821 208.563 179.16 213.363C178.919 222.571 179.925 231.771 182.153 240.722L179.738 240.896C176.171 226.023 177.134 210.814 176.276 195.745C175.731 184.418 174.506 173.133 172.606 161.946C165.413 166.384 158.488 170.458 150.718 171.905C141.584 173.602 133.671 177.69 125.672 181.789C120.162 184.613 114.767 187.653 107.896 184.255C108.994 208.372 106.398 231.296 104.185 254.242M152.281 168.707L150.86 169.328C151.112 169.421 151.383 169.617 151.615 169.581C152.142 169.503 152.668 169.32 152.218 168.62C152.578 168.851 153.011 168.947 153.438 168.89C153.865 168.833 154.255 168.626 154.538 168.309C154.594 168.25 154.482 167.894 154.371 167.847C153.384 167.432 152.775 167.949 152.28 168.706M166.7 161.232L155.551 166.696L156.247 167.903C160.261 166.683 164.044 164.832 167.448 162.424C167.965 162.123 168.876 161.963 168.376 161.125C167.877 160.288 167.261 161.066 166.704 161.237M170.139 160.807C170.281 160.656 170.404 160.535 170.527 160.413C170.288 160.271 170.033 160.158 169.766 160.075C169.671 160.054 169.522 160.295 169.395 160.416L170.139 160.807Z" fill="#28272F"/>
<path d="M244.513 173.818C244.513 173.272 244.502 172.726 244.496 172.183C251.369 170.511 258.393 170.479 265.396 170.473C311.82 170.433 358.244 170.455 404.668 170.541C408.826 170.553 410.425 169.604 411.148 165.323C413.336 152.332 413.594 152.368 427.125 152.362C439.251 152.362 451.384 152.52 463.504 152.273C468.016 152.179 470.367 153.673 471.824 157.899C476.176 170.502 476.324 170.361 489.689 170.491C496.681 170.56 503.704 169.835 510.666 171.016C510.64 171.543 510.614 172.072 510.589 172.599C507.946 172.478 505.302 172.252 502.656 172.252C425.948 172.233 349.237 172.217 272.522 172.205C263.157 172.039 253.793 172.578 244.513 173.82" fill="#050605"/>
<path d="M133.947 58.835L132.271 58.7626C133.339 54.6192 132.305 51.369 129.57 47.7341C123.808 40.0796 124.833 31.835 130.237 23.4245C125.042 23.3807 120.463 22.7153 117.511 18.575C116.6 17.3934 115.94 16.0468 115.568 14.6137C115.196 13.1806 115.121 11.6897 115.345 10.2278C116.331 4.18017 122.476 -0.690522 128.182 0.0805178C135.831 1.11561 139.626 7.41674 138.15 17.3573C147.148 14.9204 155.461 15.6567 162.041 22.6021C164.422 25.0069 166.122 27.973 166.976 31.2106C167.831 34.4481 167.81 37.8465 166.916 41.0739H165.181C164.449 39.0807 162.513 39.3221 160.948 38.9494C156.372 37.8615 151.562 37.0437 147.648 34.557C142.181 31.0866 137.77 29.1914 134.748 37.0301C134.027 38.3471 132.806 39.3354 131.346 39.7823C127.66 40.9608 128.633 42.951 129.972 45.1736C134.49 52.6486 141.308 55.5411 149.988 54.7293C150.065 55.4838 150.142 56.2382 150.224 56.9927L150.778 61.0289L148.613 61.2432C142.473 62.2722 138.415 59.176 134.951 53.5282C134.465 56.0466 134.196 57.4408 133.93 58.835" fill="#050605"/>
<path d="M797.579 325.345C801.402 321.316 805.02 317.078 809.099 313.314C814.486 308.335 820.437 304.027 828.072 302.926C831.052 302.494 834.294 302.204 836.338 305.123C838.306 307.926 837.39 310.856 835.895 313.491C834.559 315.925 832.951 318.207 831.1 320.296C819.02 333.488 807.149 346.83 797.612 361.959C797.6 349.756 797.59 337.551 797.581 325.346" fill="#C3C3C3"/>
<path d="M167.133 135.453L166.001 134.433C169.327 132.69 171.259 130.359 170.806 126.285C170.527 123.796 171.297 121.208 171.424 118.655C171.374 118.198 171.434 117.736 171.597 117.305C171.761 116.874 172.025 116.486 172.368 116.172C172.712 115.857 173.125 115.624 173.576 115.492C174.027 115.359 174.503 115.331 174.967 115.408L177.386 115.435C180.756 116.683 181.472 114.957 181.235 112.165L182.892 112.15C182.915 114.782 183.442 116.814 186.958 116.515C190.003 116.257 190.839 117.998 190.515 120.749C190.12 124.051 189.905 127.376 189.766 130.696C189.717 131.859 189.147 133.051 190.385 134.237C192.705 136.469 192.336 140.517 189.863 143.198C186.948 141.315 184.851 142.234 183.295 145.225C184.937 144.305 186.859 143.979 188.722 144.306C187.995 146.382 189.703 149.667 185.688 150.112C183.727 147.45 180.32 151.223 178.362 148.549C175.258 147.112 176.042 145.258 178.297 143.001C174.842 144.493 172.77 141.232 171.126 141.341C166.415 141.656 166.986 139.274 167.224 136.512L167.117 136.642C167.693 136.905 168.248 136.793 168.308 136.19C168.33 135.98 167.555 135.696 167.144 135.447M181.35 146.992C181.505 146.646 181.755 146.341 181.747 146.044C181.74 145.747 181.472 145.46 181.317 145.169C181.175 145.471 180.918 145.773 180.92 146.074C180.922 146.376 181.183 146.663 181.35 146.996" fill="#050605"/>
<path d="M83.0111 291.104C82.9941 291.683 82.974 292.261 82.957 292.84C74.6398 289.823 66.2993 286.87 58.0131 283.773C44.1268 278.583 43.2484 278.928 37.8386 292.622C26.4119 321.533 14.9826 350.444 3.55067 379.355C1.72422 383.953 1.10716 388.664 6.34369 390.823C17.256 395.316 28.0801 400.178 39.6914 402.877L38.5531 405.109C27.777 401.174 16.9235 397.429 6.25553 393.233C0.394202 390.928 -1.32243 385.931 0.997356 380.057C13.1438 349.269 25.2969 318.483 37.4567 287.701C41.091 278.51 45.2233 276.698 54.5133 280.211C64.0244 283.808 73.5108 287.47 83.008 291.104" fill="#28272F"/>
<path d="M510.588 172.597L510.665 171.015C513.076 170.763 515.042 172.001 517.048 172.953C562.026 194.294 606.993 215.655 651.949 237.037C652.749 237.481 653.516 237.98 654.244 238.53L652.935 239.66L651.755 239.919C650.494 237.926 648.197 237.677 646.267 236.799C620.484 224.464 594.748 212.032 568.898 199.831C552.245 191.968 535.904 183.464 518.826 176.472C516.444 174.443 513.339 173.875 510.588 172.6" fill="#28272F"/>
<path d="M777.038 275.217L774.581 276.342C774.714 274.156 772.835 273.174 771.627 271.865C757.67 256.828 740.172 247.935 719.989 243.764L720.001 242.122C742.711 245.469 763.18 257.346 777.037 275.217" fill="#28272F"/>
<path d="M797.574 325.346C797.585 337.551 797.595 349.756 797.605 361.959C796.368 364.492 795.131 367.024 793.894 369.555L792.983 370.823H792.998H792.457L791.925 370.924L790.875 369.92C794.126 366.5 795.957 362.023 796.012 357.359C795.884 345.918 795.694 334.478 795.527 323.035L797.209 323.026L797.581 325.354" fill="#050605"/>
<path d="M150.242 56.9926C150.161 56.2371 150.082 55.4827 150.003 54.7292C153.541 53.9531 156.806 52.2827 159.472 49.8858C162.139 47.489 164.112 44.4499 165.193 41.0739H166.929C165.15 50.1558 158.503 54.3762 150.243 56.9911" fill="#28272F"/>
<path d="M797.204 323.017L795.521 323.027C794.696 318.561 793.875 314.094 793.059 309.627L794.794 309.575C796.342 313.897 797.156 318.437 797.204 323.015" fill="#28272F"/>
<path d="M188.717 144.313C186.855 143.987 184.934 144.313 183.294 145.234C184.85 142.242 186.947 141.324 189.86 143.204L188.717 144.313Z" fill="#28272F"/>
<path d="M792.977 370.821L793.888 369.554C793.965 370.237 793.733 370.705 792.977 370.821Z" fill="#84C56A"/>
<path d="M793.061 309.628C793.885 314.095 794.706 318.56 795.523 323.026C795.688 334.468 795.881 345.909 796.008 357.35C795.953 362.014 794.122 366.491 790.871 369.911C786.601 373.457 781.646 374.45 776.1 374.438C701.977 374.351 627.856 374.373 553.736 374.503C548.236 374.515 546.777 373.004 546.821 367.713C546.922 355.901 547.913 344.034 546.17 332.265C541.97 303.889 516.412 284.338 486.244 286.293C458.639 288.081 436.042 311.492 435.509 339.033C435.311 349.199 435.354 359.373 435.53 369.54C435.591 373.074 434.524 374.453 430.71 374.444C390.333 374.343 349.956 374.347 309.577 374.456C306.029 374.467 305.16 373.439 305.168 370.08C305.282 329.03 305.267 287.98 305.121 246.93C305.095 241.811 307.925 242.415 311.176 242.415C405.961 242.43 500.746 242.434 595.529 242.427C630.601 242.427 665.672 242.42 700.742 242.406C707.183 242.419 713.615 242.871 719.992 243.756C740.176 247.927 757.673 256.82 771.63 271.858C772.838 273.158 774.723 274.15 774.584 276.335C736.911 280.591 699.245 277.739 661.621 275.787C627.007 273.988 592.442 271.253 557.85 268.925C555.95 268.798 553.991 268.513 552.799 270.477C551.591 272.469 552.814 273.987 553.929 275.502C559.675 283.303 565.528 291.034 571.111 298.941C573.078 301.723 575.63 301.753 578.534 301.749C604.878 301.708 631.218 301.859 657.562 301.613C662.871 301.565 667.221 302.464 670.537 306.638C675.854 313.333 682.724 315.06 691.38 314.873C717.327 314.31 743.301 314.442 769.258 314.829C775.936 314.929 780.122 313.471 781.4 306.721C781.48 305.888 781.743 305.081 782.17 304.355C782.596 303.629 783.178 303.001 783.874 302.512C784.55 302.058 785.328 301.77 786.143 301.674C786.957 301.577 787.784 301.675 788.551 301.96C789.318 302.244 790.003 302.705 790.548 303.304C791.092 303.904 791.478 304.623 791.675 305.4C792.159 306.799 792.603 308.213 793.067 309.618M369.423 270.839V270.817C371.871 270.817 374.319 270.864 376.766 270.803C377.192 270.852 377.624 270.806 378.029 270.67C378.435 270.533 378.804 270.309 379.109 270.015C379.414 269.72 379.647 269.363 379.791 268.969C379.935 268.574 379.986 268.153 379.941 267.737C379.958 267.365 379.894 266.993 379.751 266.646C379.609 266.3 379.392 265.988 379.116 265.73C378.839 265.473 378.509 265.277 378.148 265.154C377.787 265.032 377.403 264.986 377.022 265.021C372.13 264.943 367.235 264.932 362.338 264.989C360.399 265.01 359.039 265.948 359.172 268.03C359.301 270.059 360.703 270.827 362.644 270.835C364.904 270.844 367.163 270.835 369.424 270.835" fill="#FCFCFC"/>
<path d="M104.186 254.222C106.397 231.278 108.994 208.352 107.898 184.237C114.77 187.635 120.163 184.593 125.675 181.77C133.675 177.669 141.587 173.581 150.721 171.887C158.491 170.444 165.413 166.369 172.609 161.928C174.509 173.115 175.734 184.4 176.279 195.727C177.137 210.796 176.175 226.006 179.741 240.877C181.266 249.37 182.792 257.864 184.318 266.359C185.407 273.875 186.968 281.317 188.993 288.646C193.968 312.126 199.9 335.383 206.212 358.546C207.17 362.064 206.264 363.002 203.139 363.85C196.407 365.68 189.758 367.799 183.074 369.798C178.523 371.701 176.528 370.356 175.011 365.526C169.782 348.879 163.911 332.423 158.286 315.892L151.001 289.722C150.143 286.221 149.472 282.679 148.99 279.11C147.895 266.367 150.473 253.76 150.617 241.019C150.79 225.371 150.125 209.634 152.827 194.067C153.413 190.689 153.968 188.32 158.52 188.401C160.968 188.445 164.228 188.478 166.761 185.429C160.121 186.017 162.188 182.425 162.96 179.405C163.463 177.444 164.859 175.529 163.65 172.985C161.284 175.001 161.126 177.542 160.75 179.695C160.043 183.756 158.194 187.102 154.244 188.065C151.08 188.834 151.386 190.669 150.928 192.742C147.997 205.995 149.202 219.613 147.111 232.933C143.967 252.971 140.828 273.01 137.694 293.05C134.179 314.325 130.568 335.586 127.24 356.888C126.621 360.796 125.599 362.663 121.031 362.347C114.431 361.835 107.801 361.841 101.203 362.364C95.7311 362.848 94.6949 360.644 95.4357 356.194C95.7326 354.404 95.9259 352.595 96.1656 350.794C96.5306 347.313 96.9652 343.839 97.2482 340.354C98.8679 320.126 100.466 299.896 102.042 279.666C102.758 271.183 103.473 262.702 104.189 254.222" fill="#FCFCFC"/>
<path d="M186.043 266.301C184.855 259.758 183.796 253.192 182.421 246.685C181.803 243.749 181.894 242.355 185.669 242.367C223.575 242.478 261.482 242.478 299.388 242.367C302.698 242.358 303.491 243.434 303.485 246.516C303.391 287.742 303.398 328.969 303.506 370.196C303.517 373.741 302.364 374.477 298.987 374.456C277.761 374.32 256.531 374.283 235.306 374.456C230.249 374.498 228.611 372.522 228.761 367.846C228.993 360.644 228.596 353.419 228.863 346.219C229.894 318.395 217.249 299.187 190.929 288.594C189.298 281.159 187.668 273.723 186.04 266.289M251.56 270.827V270.797C254.206 270.797 256.854 270.841 259.5 270.782C259.882 270.796 260.264 270.736 260.622 270.603C260.98 270.47 261.306 270.269 261.582 270.01C261.859 269.751 262.078 269.441 262.229 269.098C262.38 268.755 262.458 268.385 262.459 268.012C262.51 267.64 262.478 267.262 262.364 266.904C262.251 266.546 262.059 266.216 261.802 265.938C261.545 265.659 261.229 265.438 260.876 265.291C260.523 265.143 260.141 265.072 259.757 265.083C254.653 264.961 249.55 264.979 244.446 265.011C244.063 264.982 243.679 265.032 243.317 265.159C242.956 265.285 242.625 265.484 242.348 265.743C242.071 266.002 241.853 266.316 241.708 266.663C241.563 267.01 241.495 267.382 241.508 267.757C241.478 268.176 241.543 268.596 241.697 268.988C241.851 269.38 242.091 269.735 242.401 270.027C242.71 270.319 243.081 270.542 243.488 270.679C243.895 270.817 244.327 270.866 244.755 270.823C247.024 270.835 249.295 270.823 251.56 270.823" fill="#FCFCFC"/>
<path d="M646.27 236.798C648.196 237.676 650.497 237.928 651.758 239.918C651.694 240 651.662 240.102 651.668 240.205C651.674 240.308 651.717 240.406 651.79 240.481C602.31 240.538 552.831 240.597 503.355 240.659C496.723 240.668 490.092 240.767 483.459 240.823C476.972 240.363 470.459 240.363 463.972 240.823L427.674 240.413C430.136 235.032 430.592 229.736 426.53 224.871C416.174 212.468 405.78 200.095 395.349 187.753C389.818 181.183 382.831 176.756 374.034 176.623C354.158 176.321 334.272 176.57 314.391 176.481C310.778 176.465 309.442 177.764 309.288 181.343C308.576 197.915 308.514 197.826 324.518 203.133C341.141 208.646 357.703 214.329 374.269 219.996C375.635 220.464 377.638 220.716 377.887 222.311C378.179 224.177 375.988 224.287 374.786 224.977C371.368 226.938 367.584 228.402 364.472 230.735C359.523 234.442 354.848 234.281 349.177 232.244C338.379 228.378 327.292 225.271 316.32 221.873C309.965 219.912 309.397 220.299 309.36 226.551C309.332 231.168 309.312 235.785 309.3 240.404L299.138 240.389C299.118 234.103 298.938 227.812 299.138 221.528C299.248 218.093 298.334 216.142 294.636 215.097C285.386 212.482 276.323 209.233 267.07 206.627C256.413 203.62 256.361 203.801 262.807 195.149C270.525 184.789 270.525 184.792 282.65 188.718C284.085 189.182 285.534 189.607 286.968 190.076C299.458 194.15 299.328 194.159 299.158 181.21C299.111 177.611 298.037 176.273 294.285 176.456C282.963 177.006 271.648 176.361 260.277 177.344C245.606 178.719 231.266 182.435 217.831 188.346C203.448 194.49 192.078 205.04 179.168 213.33C177.827 208.532 179.754 205.615 184.104 203.038C194.277 197.011 203.581 189.652 214.13 184.157C223.753 179.426 233.97 175.944 244.519 173.8C253.798 172.559 263.161 172.019 272.525 172.186C349.233 172.241 425.945 172.256 502.662 172.232C505.305 172.232 507.949 172.459 510.595 172.579C513.347 173.856 516.451 174.422 518.832 176.451C484.735 176.468 450.635 176.48 416.534 176.487C412.43 176.487 408.373 176.462 406.595 181.038C404.894 185.414 408.083 187.928 410.77 190.494C426.582 205.63 442.471 220.672 458.224 235.844C459.202 236.822 460.384 237.583 461.69 238.078C462.995 238.572 464.394 238.788 465.793 238.711C524.141 238.634 582.49 238.594 640.839 238.588C642.785 238.588 645.148 239.343 646.272 236.788" fill="#FCFCFC"/>
<path d="M39.6851 402.879C28.0738 400.177 17.2496 395.319 6.33734 390.825C1.09926 388.667 1.71789 383.956 3.55362 379.357C15.0299 350.465 26.4586 321.554 37.84 292.623C43.2529 278.932 44.1298 278.591 58.0145 283.777C66.3007 286.873 74.6411 289.824 82.9583 292.841C89.1089 296.311 89.8527 298.122 88.0093 305.127C76.8186 333.266 65.629 361.406 54.4404 389.547C43.8081 389.442 39.4871 393.349 39.6913 402.879M23.8007 394.758L25.8019 395.513L67.5178 289.85L65.5182 289.095C51.6129 324.317 37.7065 359.537 23.7992 394.757" fill="white"/>
<path d="M522.342 349.489C522.257 361.179 518.939 371.763 510.965 380.649C498.12 394.972 478.375 395.197 465.111 381.281C449.061 364.44 449.149 333.986 465.298 317.274C478.312 303.804 497.589 303.821 510.388 317.478C518.851 326.504 522.309 337.422 522.342 349.489Z" fill="#253AFB"/>
<path d="M356.41 411.356C309.478 412.145 262.72 411.677 215.607 410.149C222.733 406.298 229.898 402.515 236.96 398.556C238.758 397.548 242.11 397.284 241.434 394.438C240.775 391.657 237.793 390.928 235.056 390.701C233.386 390.563 231.697 390.675 229.612 390.675C231.777 386.357 233.86 382.479 235.682 378.488C235.987 377.73 236.55 377.097 237.277 376.698C238.004 376.298 238.85 376.155 239.672 376.294C266.191 376.338 292.708 376.338 319.222 376.294C320.134 376.161 321.064 376.349 321.846 376.824C322.629 377.299 323.212 378.031 323.492 378.888C330.039 393.862 340.447 405.207 356.409 411.365" fill="#FCFCFC"/>
<path d="M185.499 384.048C186.206 386.927 183.656 387.384 181.985 388.255C170.771 394.097 157.824 392.131 147.925 383.202C129.294 366.394 129.391 332.115 148.12 315.361C154.32 309.812 154.482 309.849 157.102 317.369C162.91 335.089 168.721 352.809 174.536 370.527C174.967 371.838 175.136 374.148 177.117 373.374C181.668 371.58 181.585 375.185 182.66 377.43C183.694 379.597 184.559 381.839 185.499 384.048Z" fill="#253AFB"/>
<path d="M572.15 376.526H591.505C591.604 378.103 592.846 378.68 594.077 379.108C602.643 382.085 610.069 387.06 617.64 391.783L617.899 392.225L618.097 392.029L617.633 391.783C616.95 386.28 613.303 381.841 611.911 376.591C620.601 375.256 627.754 375.933 630.831 386.152C632.378 391.304 636.994 395.261 640.664 399.439C638.6 400.275 636.513 401.062 634.478 401.965C633.641 402.337 632.777 402.968 633.049 404.03C633.341 405.182 634.478 404.936 635.369 405.07C638.974 405.595 642.389 404.37 645.896 404.002C650.397 406.567 654.852 409.218 659.622 411.569H577.568L575.622 410.469C574.354 404.296 575.659 400.776 580.766 400.057C585.623 399.38 590.405 398.179 595.677 398.969C601.984 399.917 607.975 401.924 614.964 403.072C615.385 403.145 615.075 403.004 614.749 402.905C614.14 402.721 614.027 402.905 614.511 403.303C614.787 403.488 615.099 403.615 615.428 403.676C615.476 403.688 615.604 403.419 614.964 403.072C613.847 400.237 611.423 399.516 609.567 398.472C603.275 395.084 596.42 392.809 589.317 391.751C576.374 389.546 572.631 386.168 572.15 376.511" fill="#A4A4A4"/>
<path d="M70.1222 411.007H57.6139C61.3256 407.537 63.1922 404.042 62.8613 399.627C62.5226 395.081 58.8975 392.759 56.4772 389.607C57.0046 388.427 57.5768 387.262 58.0516 386.062C67.923 361.154 77.7497 336.228 87.7449 311.373C88.2475 310.12 87.5221 307.222 90.6832 307.795C90.6446 322.46 90.4899 337.125 90.6245 351.791C90.5642 357.124 92.5621 362.284 96.2213 366.246C96.8248 366.815 97.3048 367.497 97.6329 368.251C97.961 369.005 98.1305 369.815 98.1313 370.634C97.6911 374.783 97.2514 378.933 96.8121 383.082C91.7705 381.042 86.8138 378.753 81.6562 377.017C72.459 373.914 67.5472 374.681 66.0363 378.978C64.3212 383.855 68.1612 387.746 77.7327 390.467C83.8724 392.213 90.0956 393.679 96.2817 395.27C96.2641 396.687 96.2461 398.105 96.2275 399.523C89.828 399.476 83.4826 398.256 77.0135 399.402C68.8633 400.843 67.0307 403.609 70.1067 411.021" fill="#FCFCFC"/>
<path d="M99.8061 370.667C99.9175 369.383 100.098 368.102 100.115 366.812C100.165 364.11 101.353 363.456 103.637 364.933C107.899 367.726 112.864 369.327 117.993 369.561C120.032 369.661 120.601 370.48 120.339 372.318C120.109 373.954 120.059 375.616 119.929 377.267C119.114 383.577 117.696 389.842 118.436 396.267C118.695 397.575 118.68 399.028 120.291 399.632L120.104 399.718C119.673 403.283 116.448 403.452 113.968 404.231C111.801 404.867 109.548 405.181 107.285 405.163C98.2673 405.212 97.7338 404.579 98.3864 395.716C98.4544 394.8 98.4235 393.88 98.439 392.959C98.8926 385.529 99.3468 378.098 99.8014 370.667" fill="#FCFCFC"/>
<path d="M183.045 371.834C189.516 372.049 196.011 373.812 202.398 370.907C204.987 369.729 204.851 372.54 205.415 373.794C208.19 379.944 208.454 387.149 213.64 392.299C214.776 393.426 213.759 394.324 213.057 395.117C208.711 400.023 202.888 401.871 196.549 402.638C194.084 402.939 193.965 400.96 193.385 399.508C191.331 394.378 189.338 389.215 187.321 384.062L183.046 371.84" fill="#FCFCFC"/>
<path d="M137.691 293.049C140.83 273.01 143.969 252.971 147.108 232.932C149.199 219.61 147.996 205.992 150.925 192.741C151.389 190.669 151.08 188.834 154.241 188.063C158.189 187.102 160.04 183.756 160.747 179.695C161.123 177.543 161.28 175.002 163.645 172.985C164.858 175.529 163.461 177.439 162.957 179.405C162.184 182.423 160.117 186.017 166.758 185.429C164.223 188.478 160.966 188.447 158.517 188.401C153.965 188.321 153.413 190.689 152.822 194.067C150.122 209.634 150.789 225.369 150.613 241.019C150.472 253.754 147.894 266.369 148.989 279.11C149.473 282.679 150.147 286.222 151.008 289.723C150.425 289.723 149.841 289.727 149.258 289.734C146.904 282.903 146.502 275.659 144.009 268.63C142.484 276.778 140.96 284.923 139.437 293.064L137.691 293.049Z" fill="#28272F"/>
<path d="M94.4951 350.764C94.3188 352.393 94.141 354.021 93.9337 355.951C91.7562 353.585 92.1723 350.987 92.1661 348.541C92.1269 333.273 92.1269 318.006 92.1661 302.739C92.1893 295.14 97.0949 288.99 98.8502 281.895C101.19 284.124 99.5399 286.723 99.3636 289.07C97.8341 309.64 96.1407 330.201 94.4967 350.762" fill="#D0E0FC"/>
<path d="M90.6924 307.794C87.5328 307.22 88.2612 310.119 87.754 311.371C77.7557 336.23 67.9276 361.155 58.0607 386.061C57.5859 387.268 57.0137 388.424 56.4864 389.605L54.4372 389.543C65.6258 361.403 76.8154 333.263 88.006 305.124C89.7521 305.197 91.3605 305.403 90.6955 307.79" fill="#28272F"/>
<path d="M183.045 371.84L187.319 384.062C186.714 384.062 186.108 384.055 185.5 384.042C184.562 381.834 183.696 379.592 182.661 377.426C181.579 375.174 181.67 371.576 177.118 373.37C175.139 374.15 174.969 371.834 174.537 370.522C168.712 352.808 162.901 335.089 157.103 317.366C157.501 316.875 157.895 316.379 158.289 315.889C163.916 332.42 169.783 348.876 175.012 365.523C176.531 370.352 178.523 371.698 183.077 369.795L183.045 371.835" fill="#28272F"/>
<path d="M94.5 350.764C96.1439 330.202 97.8374 309.642 99.3669 289.071C99.5432 286.722 101.193 284.125 98.8534 281.897C98.7143 279.514 100.445 279.677 102.049 279.665C100.453 299.895 98.8545 320.124 97.2543 340.352C96.9744 343.839 96.5383 347.313 96.1718 350.792L94.5015 350.765" fill="#28272F"/>
<path d="M139.437 293.062C140.962 284.914 142.486 276.769 144.009 268.627C146.504 275.659 146.904 282.902 149.259 289.731C147.637 293.921 142.101 293.596 140.068 297.311L140.048 297.333C138.168 296.138 139.649 294.482 139.43 293.061" fill="#FCFCFC"/>
<path d="M92.5838 269.795C93.8105 264.003 96.4598 258.588 100.304 254.015C101.144 253.08 101.946 252.297 102.499 254.216C101.889 264.239 96.1733 272.59 92.955 281.86C91.7472 277.826 92.1817 273.809 92.5838 269.789" fill="#D0E0FC"/>
<path d="M405.609 410.417L472.473 410.395L475.257 410.884C475.257 411.077 475.245 411.268 475.24 411.463H403.276C403.805 410.279 404.845 410.657 405.609 410.417Z" fill="#ADE9C9"/>
<path d="M523.866 410.378L575.619 410.469L577.566 411.567C559.571 411.686 541.58 411.792 523.592 411.887C522.923 411.887 521.523 412.459 521.777 410.923C521.825 410.639 523.141 410.555 523.871 410.38" fill="#ADE9C9"/>
<path d="M186.044 266.308C187.673 273.744 189.302 281.179 190.932 288.614L188.993 288.655C186.97 281.325 185.409 273.881 184.318 266.365L186.044 266.308Z" fill="#28272F"/>
<path d="M96.6449 392.825C96.7016 389.577 96.7604 386.329 96.8213 383.082C97.2615 378.931 97.7012 374.781 98.1404 370.632L99.8076 370.67C99.356 378.101 98.9028 385.532 98.4482 392.964L96.6465 392.827" fill="#28272F"/>
<path d="M572.152 376.525C572.629 386.182 576.373 389.558 589.319 391.764C596.422 392.822 603.278 395.098 609.569 398.485C611.425 399.528 613.85 400.249 614.232 402.883C607.982 401.93 601.989 399.923 595.683 398.975C590.411 398.185 585.63 399.386 580.771 400.063C575.668 400.777 574.358 404.297 575.624 410.475C558.372 410.447 541.121 410.417 523.871 410.384C537.686 404.452 548.585 393.496 554.25 379.846C555.369 377.29 556.738 376.101 559.7 376.306C563.835 376.594 568.001 376.478 572.154 376.532" fill="#FCFCFC"/>
<path d="M405.61 410.419C422.313 403.255 432.555 390.399 439.097 372.73C445.577 390.384 455.854 403.179 472.476 410.395L405.612 410.417" fill="#FCFCFC"/>
<path d="M744.743 392.235C741.2 393.07 739.239 395.927 736.818 398.179C729.066 405.39 719.607 408.955 709.216 410.552C723.471 404.268 734.606 392.747 740.198 378.494C741.232 375.948 742.759 376.368 744.511 376.369C746.957 376.369 749.406 376.49 751.852 376.559C752.104 380.241 748.71 382.714 748.482 386.237C746.529 387.814 744.18 389.159 744.744 392.229" fill="#C5C5C5"/>
<path d="M96.2991 395.262C90.1131 393.67 83.8899 392.207 77.7502 390.459C68.1803 387.743 64.3387 383.847 66.0538 378.969C67.5648 374.676 72.478 373.91 81.6737 377.008C86.8236 378.744 91.7802 381.033 96.8219 383.073C96.7611 386.323 96.7018 389.572 96.6441 392.819C96.5265 393.632 96.4111 394.445 96.2976 395.258" fill="#C5C5C5"/>
<path d="M70.1227 411.007C67.0466 403.602 68.8854 400.836 77.0294 399.389C83.4986 398.242 89.8439 399.463 96.2434 399.51C96.5234 411.267 96.5234 411.293 84.8347 411.255C79.9307 411.238 75.0267 411.09 70.1227 411.001" fill="#C5C5C5"/>
<path d="M128.419 402.677C124.915 403.659 123.498 399.055 120.111 399.721L120.3 399.635C122.126 398.49 120.171 397.335 120.311 396.185C120.911 390.326 120.311 384.315 122.667 378.682C125.065 386.388 130.128 392.49 135.241 398.56C133.046 400.056 129.953 400.139 128.417 402.675" fill="#C5C5C5"/>
<path d="M140.858 403.704C145.403 405.794 149.244 409.136 154.108 410.757C150.066 411.136 145.964 412.454 143.437 407.47C142.664 405.936 140.143 405.239 138.423 404.151L140.85 403.698" fill="#C5C5C5"/>
<path d="M611.91 376.594C613.302 381.844 616.956 386.283 617.632 391.786C610.063 387.058 602.631 382.082 594.069 379.111C592.832 378.684 591.595 378.105 591.497 376.529L611.902 376.597" fill="#C5C5C5"/>
<path d="M645.897 404C642.391 404.37 638.975 405.593 635.369 405.071C634.48 404.942 633.343 405.183 633.049 404.033C632.78 402.977 633.641 402.339 634.476 401.966C636.509 401.061 638.595 400.276 640.663 399.442L645.899 404.002" fill="#C5C5C5"/>
<path d="M122.665 378.681C120.305 384.314 120.908 390.327 120.308 396.184L118.452 396.267C117.71 389.841 119.128 383.576 119.946 377.267C121.046 377.389 122.376 377.089 122.673 378.681" fill="#28272F"/>
<path d="M140.857 403.704L138.431 404.157L128.42 402.675C129.956 400.139 133.046 400.053 135.243 398.557C137.404 399.945 139.303 401.685 140.857 403.703" fill="#FCFCFC"/>
<path d="M463.977 240.822C470.464 240.361 476.976 240.361 483.463 240.822C476.978 241.33 470.462 241.33 463.977 240.822Z" fill="#28272F"/>
<path d="M140.067 297.313L139.284 296.57L139.816 296.317C139.897 296.653 139.971 296.991 140.05 297.331L140.067 297.314" fill="#FCFCFC"/>
<path d="M651.787 240.481C651.715 240.405 651.673 240.308 651.667 240.205C651.661 240.102 651.692 240.001 651.755 239.918C652.149 239.831 652.543 239.744 652.935 239.655C653.318 240.945 652.407 240.521 651.787 240.481Z" fill="#D0E0FC"/>
<path d="M744.744 392.234C744.179 389.163 746.529 387.817 748.483 386.242C754.145 389.494 759.832 392.73 764.651 398.514L744.744 392.234Z" fill="#FCFCFC"/>
<path d="M181.243 112.171C181.48 114.962 180.764 116.689 177.394 115.439C176.99 112.483 178.012 109.18 174.976 105.868V115.411C174.512 115.334 174.036 115.363 173.585 115.495C173.134 115.628 172.721 115.861 172.378 116.175C172.035 116.49 171.771 116.878 171.607 117.308C171.443 117.739 171.384 118.201 171.433 118.658C171.308 121.209 170.538 123.8 170.815 126.29C171.268 130.35 169.336 132.687 166.01 134.438C153.183 144.639 137.131 148.6 122.73 155.751C119.818 157.198 119.07 155.989 118.742 153.594C118.326 150.539 116.011 147.257 119.943 144.657C120.418 144.342 120.341 142.921 120.188 142.065C117.986 129.505 116.885 116.784 116.898 104.041C116.898 103.806 116.487 103.573 116.051 103.11C114.084 104.636 114.735 106.771 114.691 108.601C114.628 118.95 115.623 129.279 117.662 139.435C118.326 143.07 117.302 144.835 114.147 146.376C106.724 149.997 98.8766 150.251 90.8594 149.726C90.1021 149.735 89.3673 149.475 88.7913 148.995C88.2153 148.515 87.8374 147.848 87.7277 147.117C83.1191 129.514 80.6972 111.844 87.6937 94.3058C91.6342 84.4286 97.7709 76.1705 108.314 71.8566C112.025 70.3356 114.292 70.6132 116.269 74.7129C119.401 81.2657 123.824 87.153 129.286 92.0394C131.484 94.0692 133.918 95.8415 136.538 97.3205C149.422 104.261 160.77 97.9377 161.378 83.567C161.495 80.8148 161.395 78.0506 161.395 75.0735C165.88 75.2667 168.571 78.3931 171.065 81.5316C177.183 89.242 179.336 98.3888 180.634 107.803C180.833 109.259 181.042 110.712 181.252 112.165" fill="#FCFCFC"/>
<path d="M167.219 136.524C166.978 139.281 166.41 141.664 171.121 141.353C172.765 141.243 174.833 144.502 178.292 143.013C176.039 145.268 175.252 147.124 178.357 148.558C177.579 148.975 176.825 149.433 176.098 149.931C178.681 155.026 173.574 155.081 171.327 156.244C154.47 164.961 137.5 173.459 120.5 181.895C112.641 185.797 108.425 184.072 105.19 175.918C102.137 168.223 99.1691 160.482 95.8596 151.983C102.64 152.721 108.594 153.843 114.573 152.587C115.927 152.303 116.598 153.397 116.755 154.571C116.939 155.939 117.853 157.515 116.074 158.544C115.298 158.827 114.623 159.326 114.131 159.978C113.64 160.629 113.355 161.407 113.309 162.215C131.779 153.179 150.947 147.92 167.213 136.52" fill="#FCFCFC"/>
<path d="M133.947 58.835C134.215 57.4408 134.482 56.0465 134.969 53.5282C138.435 59.176 142.493 62.2707 148.631 61.2431C148.964 66.5861 150.088 71.3315 156.547 72.7665C158.52 73.2041 158.583 75.2351 158.866 76.8571C160.413 85.5634 157.838 94.3858 152.334 96.6914C144.28 100.067 137.628 96.4952 131.703 91.3635C125.826 86.2771 121.651 79.9126 117.763 73.3188C116.275 70.7959 116.765 69.7412 119.603 69.3112C121.844 68.9702 124.068 68.5175 126.273 68.0014C128.64 67.4477 130.775 67.3119 131.896 71.7239C133.178 67.5393 133.865 63.2032 133.939 58.8365" fill="#FCFCFC"/>
<path d="M167.445 162.402C164.04 164.808 160.257 166.658 156.244 167.881L155.548 166.674L166.695 161.21L167.445 162.402Z" fill="#ADE9C9"/>
<path d="M152.211 168.596C152.665 169.301 152.137 169.482 151.613 169.56C151.379 169.596 151.11 169.399 150.857 169.307C151.331 169.101 151.805 168.895 152.28 168.686L152.211 168.596Z" fill="#ADE9C9"/>
<path d="M152.28 168.688C152.771 167.934 153.384 167.413 154.368 167.826C154.479 167.873 154.593 168.231 154.536 168.288C154.254 168.605 153.863 168.811 153.436 168.869C153.009 168.926 152.576 168.83 152.216 168.599L152.281 168.688" fill="#ADE9C9"/>
<path d="M167.142 135.453C167.553 135.702 168.328 135.989 168.307 136.199C168.246 136.802 167.688 136.915 167.116 136.651L167.142 135.444" fill="#FCFCFC"/>
<path d="M166.696 161.214C167.253 161.042 167.873 160.274 168.371 161.103C168.869 161.931 167.961 162.1 167.443 162.402L166.696 161.214Z" fill="#ADE9C9"/>
<path d="M170.133 160.784L169.389 160.392C169.514 160.271 169.664 160.03 169.76 160.051C170.027 160.134 170.282 160.247 170.521 160.389C170.397 160.511 170.275 160.636 170.133 160.783" fill="#ADE9C9"/>
<path d="M165.192 41.0678C164.11 44.4439 162.137 47.483 159.471 49.8798C156.804 52.2767 153.539 53.9471 150.002 54.7232C141.324 55.535 134.507 52.6455 129.99 45.1675C128.647 42.9464 127.678 40.9547 131.363 39.7762C132.821 39.3293 134.04 38.3407 134.758 37.024C137.781 29.1869 142.192 31.079 147.657 34.551C151.574 37.0391 156.384 37.8584 160.957 38.9463C162.525 39.319 164.462 39.0776 165.193 41.0678" fill="#FCFCFC"/>
<path d="M174.975 115.417V105.875C178.011 109.187 176.986 112.489 177.394 115.445L174.975 115.418" fill="#28272F"/>
<path d="M181.347 146.998C181.18 146.663 180.917 146.368 180.917 146.076C180.917 145.783 181.171 145.472 181.314 145.17C181.469 145.462 181.737 145.75 181.744 146.047C181.752 146.344 181.503 146.651 181.347 146.995" fill="#28272F"/>
<path d="M179.165 213.348C192.08 205.058 203.445 194.506 217.828 188.361C231.263 182.452 245.601 178.736 260.271 177.361C271.644 176.377 282.956 177.023 294.28 176.474C298.034 176.291 299.107 177.629 299.153 181.228C299.322 194.177 299.455 194.173 286.965 190.094C285.53 189.625 284.081 189.201 282.646 188.736C270.522 184.813 270.522 184.813 262.802 195.169C256.356 203.821 256.409 203.641 267.068 206.645C276.319 209.254 285.381 212.503 294.633 215.118C298.33 216.163 299.243 218.114 299.133 221.546C298.929 227.826 299.108 234.118 299.133 240.407C271.691 240.485 244.247 240.563 216.802 240.639C205.255 240.67 193.708 240.693 182.16 240.708C179.933 231.757 178.927 222.559 179.168 213.351" fill="#E5E5E5"/>
<path d="M309.295 240.416C309.315 235.798 309.335 231.182 309.356 226.565C309.397 220.308 309.963 219.913 316.315 221.888C327.295 225.286 338.375 228.393 349.173 232.26C354.844 234.29 359.519 234.452 364.468 230.751C367.579 228.42 371.364 226.955 374.781 224.993C375.983 224.304 378.176 224.192 377.882 222.327C377.633 220.729 375.629 220.477 374.265 220.012C357.698 214.342 341.134 208.661 324.513 203.149C308.513 197.842 308.572 197.931 309.283 181.358C309.438 177.777 310.777 176.481 314.387 176.496C334.269 176.587 354.154 176.333 374.031 176.638C382.828 176.774 389.806 181.198 395.346 187.768C405.753 200.128 416.146 212.501 426.527 224.886C430.591 229.755 430.132 235.048 427.671 240.428C397.646 240.504 367.62 240.574 337.595 240.639C328.161 240.651 318.728 240.506 309.286 240.432" fill="#E5E5E5"/>
<path d="M646.269 236.794C645.148 239.359 642.783 238.593 640.836 238.594C582.488 238.648 524.139 238.689 465.79 238.72C464.392 238.796 462.993 238.579 461.688 238.085C460.382 237.59 459.2 236.829 458.221 235.853C442.468 220.673 426.578 205.631 410.761 190.514C408.077 187.949 404.885 185.439 406.586 181.058C408.364 176.481 412.419 176.504 416.527 176.507C450.625 176.522 484.724 176.51 518.825 176.471C535.903 183.463 552.244 191.97 568.897 199.83C594.747 212.032 620.482 224.465 646.266 236.797M489.857 184.807C491.037 186.905 493.026 187.244 494.651 188.004C509.473 194.936 524.689 201.157 539.084 208.844C554.401 217.113 571.635 221.411 589.14 221.327C588.344 219.828 586.337 219.516 584.738 218.751C566.085 209.779 547.002 201.55 528.846 191.722C517.018 185.199 503.28 182.762 489.855 184.806M527.037 222.075C524.912 220.774 524.326 220.34 523.679 220.029C499.744 208.533 475.933 196.77 451.781 185.722C444.033 182.176 435.356 184.629 426.418 184.585C428.294 187.321 430.419 187.814 432.246 188.668C448.439 196.252 465.098 203.012 480.749 211.537C494.883 219.232 510.067 220.162 527.029 222.074" fill="#E5E5E5"/>
<path d="M369.415 270.85C367.155 270.85 364.896 270.85 362.635 270.85C360.694 270.841 359.291 270.073 359.163 268.045C359.03 265.963 360.391 265.027 362.328 265.005C367.224 264.947 372.118 264.958 377.013 265.036C377.393 265.002 377.777 265.047 378.138 265.169C378.499 265.292 378.829 265.488 379.106 265.746C379.383 266.003 379.599 266.315 379.742 266.662C379.884 267.008 379.949 267.38 379.931 267.752C379.976 268.168 379.925 268.589 379.781 268.984C379.637 269.378 379.404 269.736 379.099 270.03C378.794 270.325 378.425 270.548 378.02 270.685C377.614 270.821 377.182 270.867 376.756 270.818C374.309 270.877 371.861 270.83 369.413 270.83L369.415 270.85Z" fill="#050605"/>
<path d="M251.562 270.839C249.293 270.839 247.023 270.85 244.757 270.839C244.329 270.882 243.896 270.834 243.489 270.696C243.082 270.559 242.711 270.336 242.402 270.044C242.092 269.752 241.852 269.397 241.698 269.005C241.544 268.613 241.48 268.192 241.51 267.773C241.497 267.399 241.565 267.026 241.71 266.679C241.855 266.332 242.073 266.019 242.35 265.76C242.627 265.501 242.957 265.301 243.319 265.175C243.68 265.049 244.065 264.999 244.448 265.027C249.551 264.995 254.655 264.976 259.759 265.1C260.143 265.089 260.525 265.16 260.878 265.307C261.231 265.455 261.547 265.675 261.804 265.954C262.061 266.233 262.253 266.563 262.366 266.921C262.48 267.279 262.512 267.657 262.46 268.028C262.459 268.402 262.381 268.771 262.231 269.115C262.08 269.458 261.86 269.768 261.584 270.027C261.308 270.285 260.981 270.487 260.624 270.619C260.266 270.752 259.884 270.813 259.502 270.799C256.856 270.858 254.208 270.814 251.562 270.814V270.839Z" fill="#050605"/>
<path d="M23.8021 394.76C37.7074 359.538 51.6138 324.318 65.5211 289.098L67.5208 289.853L25.7971 395.512L23.7959 394.758" fill="#28272F"/>
<path d="M615.7 403.28C615.608 403.431 615.478 403.695 615.43 403.682C615.1 403.621 614.786 403.494 614.51 403.309C614.025 402.906 614.143 402.73 614.752 402.914C615.076 403.012 615.385 403.15 615.7 403.28Z" fill="#95D57C"/>
<path d="M617.64 391.784L618.104 392.027L617.906 392.226L617.64 391.784Z" fill="#95D57C"/>
<path d="M118.446 396.267L120.302 396.183C120.163 397.331 122.119 398.487 120.291 399.632C118.685 399.028 118.7 397.577 118.436 396.267" fill="#050605"/>
<path d="M489.852 184.804C503.277 182.76 517.015 185.197 528.843 191.721C547.004 201.556 566.082 209.778 584.734 218.75C586.333 219.518 588.341 219.827 589.137 221.325C571.632 221.41 554.397 217.112 539.081 208.842C524.686 201.154 509.47 194.935 494.648 188.003C493.024 187.249 491.035 186.903 489.854 184.806" fill="#FCFCFC"/>
<path d="M527.038 222.072C510.078 220.159 494.892 219.233 480.759 211.536C465.108 203.011 448.449 196.251 432.255 188.667C430.428 187.813 428.304 187.32 426.428 184.584C435.359 184.629 444.035 182.17 451.791 185.72C475.943 196.767 499.753 208.532 523.688 220.028C524.335 220.339 524.926 220.773 527.046 222.074" fill="#FCFCFC"/>
</svg>
